<svg version="1.1" id="Layer_1" xmlns="http://www.w3.org/2000/svg" xmlns:xlink="http://www.w3.org/1999/xlink" x="0px" y="0px"
	 width="100%" viewBox="0 0 1271 505" enable-background="new 0 0 1271 505" xml:space="preserve">
<path fill="#000000" opacity="1.000000" stroke="none" 
	d="
M879.000000,506.000000 
	C586.000000,506.000000 293.500031,506.000000 1.000039,506.000000 
	C1.000026,337.666687 1.000026,169.333389 1.000013,1.000062 
	C424.666626,1.000041 848.333252,1.000041 1272.000000,1.000021 
	C1272.000000,169.333267 1272.000000,337.666534 1272.000000,505.999908 
	C1141.166626,506.000000 1010.333313,506.000000 879.000000,506.000000 
M710.647644,283.969086 
	C711.376221,283.312439 712.104736,282.655792 713.235413,281.238647 
	C713.490295,279.655975 713.966614,278.073486 713.967896,276.490601 
	C714.007263,227.850098 714.002197,179.209549 713.988770,130.569016 
	C713.988342,129.132477 713.822266,127.695961 713.737610,126.327652 
	C661.000244,126.327652 608.627991,126.327652 556.000000,126.327652 
	C556.000000,146.790176 555.980103,166.925949 556.004517,187.061676 
	C556.042969,218.707611 556.111206,250.353500 556.045776,282.777069 
	C557.363953,283.129120 558.682190,283.481171 560.927856,283.976715 
	C587.353943,283.984467 613.779968,284.016388 640.206055,283.992676 
	C663.470581,283.971832 686.735168,283.888794 710.647644,283.969086 
z"/>
<path fill="#1890FF" opacity="1.000000" stroke="none" 
	d="
M556.166809,281.999420 
	C556.111206,250.353500 556.042969,218.707611 556.004517,187.061676 
	C555.980103,166.925949 556.000000,146.790176 556.000000,126.327652 
	C608.627991,126.327652 661.000244,126.327652 713.737610,126.327652 
	C713.822266,127.695961 713.988342,129.132477 713.988770,130.569016 
	C714.002197,179.209549 714.007263,227.850098 713.967896,276.490601 
	C713.966614,278.073486 713.490295,279.655975 712.728760,281.619202 
	C711.814758,281.999817 711.407410,281.999908 710.989502,281.721527 
	C710.971741,281.257416 710.964478,281.071747 710.975708,280.424927 
	C710.994202,229.742935 710.994202,179.522049 710.994202,129.301666 
	C660.029785,129.301666 609.669006,129.301666 559.042847,129.301666 
	C559.042847,180.030396 559.042847,230.458237 559.031982,281.164551 
	C559.013977,281.628693 559.006958,281.814362 558.645874,282.000000 
	C557.583374,281.999817 556.875122,281.999603 556.166809,281.999420 
z"/>
<path fill="#1890FF" opacity="1.000000" stroke="none" 
	d="
M710.957153,280.886078 
	C710.964478,281.071747 710.971741,281.257416 710.806946,281.914917 
	C710.423218,282.868927 710.211426,283.351074 709.999695,283.833221 
	C686.735168,283.888794 663.470581,283.971832 640.206055,283.992676 
	C613.779968,284.016388 587.353943,283.984467 560.396973,283.647339 
	C559.577454,282.878601 559.288757,282.439301 559.000000,282.000000 
	C559.006958,281.814362 559.013977,281.628693 559.495605,281.213623 
	C610.299133,280.951477 660.628113,280.918793 710.957153,280.886078 
z"/>
<path fill="#1890FF" opacity="1.000000" stroke="none" 
	d="
M558.645874,282.000000 
	C559.288757,282.439301 559.577454,282.878601 559.933228,283.575562 
	C558.682190,283.481171 557.363953,283.129120 556.106323,282.388245 
	C556.875122,281.999603 557.583374,281.999817 558.645874,282.000000 
z"/>
<path fill="#1890FF" opacity="1.000000" stroke="none" 
	d="
M710.323669,283.901154 
	C710.211426,283.351074 710.423218,282.868927 710.817505,282.193390 
	C711.407410,281.999908 711.814758,281.999817 712.527710,281.999451 
	C712.104736,282.655792 711.376221,283.312439 710.323669,283.901154 
z"/>
<path fill="#000000" opacity="1.000000" stroke="none" 
	d="
M710.975708,280.424927 
	C660.628113,280.918793 610.299133,280.951477 559.506470,280.935120 
	C559.042847,230.458237 559.042847,180.030396 559.042847,129.301666 
	C609.669006,129.301666 660.029785,129.301666 710.994202,129.301666 
	C710.994202,179.522049 710.994202,229.742935 710.975708,280.424927 
z"/>
</svg>